# AST/ASF file generated using VICON BodyLanguage
# -----------------------------------------------
:version 1.10
:name VICON
:units
  mass 1.0
  length 0.45
  angle deg
:documentation
   .ast/.asf automatically generated from VICON data using
   VICON BodyBuilder and BodyLanguage model FoxedUp or BRILLIANT.MOD
:root
   order TX TY TZ RX RY RZ
   axis XYZ
   position 0 0 0  
   orientation 0 0 0 
:bonedata
  begin
     id 1 
     name lhipjoint
     direction 0.700308 -0.549349 0.455834 
     length 2.59063 
     axis 0 0 0  XYZ
  end
  begin
     id 2 
     name lfemur
     direction 0.34202 -0.939693 0  
     length 6.31066  
     axis 0 0 20  XYZ
    dof rx ry rz
    limits (-160.0 20.0)
           (-70.0 70.0)
           (-60.0 70.0)
  end
  begin
     id 3 
     name ltibia
     direction 0.34202 -0.939693 0   
     length 7.36093   
     axis 0 0 20   XYZ
    dof rx
    limits (-10.0 170.0)
  end
  begin
     id 4 
     name lfoot
     direction 0.0905332 -0.248738 0.96433   
     length 2.0233   
     axis -90 7.62852e-016 20   XYZ
    dof rx rz
    limits (-45.0 90.0)
           (-70.0 20.0)
  end
  begin
     id 5 
     name ltoes
     direction 1.53573e-011 -4.21855e-011 1   
     length 1.01524   
     axis -90 7.62852e-016 20   XYZ
    dof rx
    limits (-90.0 20.0)
  end
  begin
     id 6 
     name rhipjoint
     direction -0.61416 -0.607328 0.503944   
     length 2.34332  
     axis 0 0 0  XYZ 
  end
  begin
     id 7 
     name rfemur
     direction -0.34202 -0.939693 0   
     length 6.58548   
     axis 0 0 -20   XYZ
    dof rx ry rz
    limits (-160.0 20.0)
           (-70.0 70.0)
           (-70.0 60.0)
  end
  begin
     id 8 
     name rtibia
     direction -0.34202 -0.939693 0   
     length 7.20707   
     axis 0 0 -20   XYZ
    dof rx
    limits (-10.0 170.0)
 end
 begin
     id 9 
     name rfoot
     direction -0.136772 -0.375778 0.916561   
     length 1.92184  
     axis -90 -7.62852e-016 -20   XYZ
    dof rx rz
    limits (-45.0 90.0)
           (-20.0 70.0)
  end
  begin
     id 10 
     name rtoes
     direction -1.53535e-011 -4.21828e-011 1   
     length 0.951089   
     axis -90 -7.62852e-016 -20   XYZ
    dof rx
    limits (-90.0 20.0)
  end
  begin
     id 11 
     name lowerback
     direction -0.0444974 0.988086 -0.147332   
     length 1.9609   
     axis 0 0 0   XYZ
    dof rx ry rz
    limits (-20.0 45.0)
           (-30.0 30.0)
           (-30.0 30.0)
  end
  begin
     id 12 
     name upperback
     direction 0.00613146 0.999513 0.0306081   
     length 1.94944   
     axis 0 0 0   XYZ
    dof rx ry rz
    limits (-20.0 45.0)
           (-30.0 30.0)
           (-30.0 30.0)
  end
  begin
     id 13 
     name thorax
     direction 0.0254621 0.994518 0.101418   
     length 2.0119   
     axis 0 0 0   XYZ
    dof rx ry rz
    limits (-20.0 45.0)
           (-30.0 30.0)
           (-30.0 30.0)
  end
  begin
     id 14 
     name lowerneck
     direction 0.0168698 0.977854 0.208608   
     length 1.6375   
     axis 0 0 0   XYZ
    dof rx ry rz
    limits (-20.0 45.0)
           (-30.0 30.0)
           (-30.0 30.0)
  end
  begin
     id 15 
     name upperneck
     direction -0.0283988 0.989338 -0.142843   
     length 1.6851   
     axis 0 0 0   XYZ
    dof rx ry rz
    limits (-20.0 45.0)
           (-30.0 30.0)
           (-30.0 30.0)
  end
  begin
     id 16
     name head
     direction -0.0129422 0.99741 -0.0707489  
     length 1.69029  
     axis 0 0 0   XYZ
    dof rx ry rz
    limits (-20.0 45.0)
           (-30.0 30.0)
           (-30.0 30.0)
  end
  begin
     id 17 
     name lclavicle
     direction 0.820295 0.564628 -0.0911715  
     length 3.16484  
     axis 0 0 0   XYZ
    dof ry rz
    limits (-20.0 10.0)
           (0.0 20.0)
  end
  begin
     id 18 
     name lhumerus
     direction 1 -4.48969e-011 1.00186e-027   
     length 5.17853   
     axis 180 -30 -90   XYZ
    dof rx ry rz
    limits (-60.0 90.0)
           (-90.0 90.0)
           (-90.0 90.0)
  end
  begin
     id 19
     name lradius
     direction 1 -4.48966e-011 -1.52922e-027   
     length 3.40399   
     axis 180 -30 -90   XYZ
    dof rx
    limits (-10.0 170.0)
  end
  begin
     id 20
     name lwrist
     direction 1 -4.48981e-011 -3.80893e-027   
     length 1.70199   
     axis 1.1049e-015 90 90   XYZ
    dof ry
    limits (-180.0 0.0)
 end
  begin
     id 21 
     name lhand
     direction 1 -4.48957e-011 -7.61786e-027   
     length 0.708964   
     axis 4.86085e-015 90 90   XYZ
    dof rx rz
    limits (-90.0 90.0)
           (-45.0 45.0)
  end
  begin
     id 22 
     name lfingers
     direction 1 -4.48929e-011 -1.52357e-026   
     length 0.571585   
     axis 9.7217e-015 90 90   XYZ
    dof rx
    limits (0.0 90.0)
  end
  begin
     id 23
     name lthumb
     direction 0.707107 -6.34905e-011 0.707107   
     length 0.820685   
     axis -90 45 2.85299e-015   XYZ
    dof rx rz
    limits (-45.0 45.0)
           (-45.0 45.0)
  end
  begin
     id 24 
     name rclavicle
     direction -0.858602 0.463947 -0.218075   
     length 3.35137  
     axis 0 0 0   XYZ 
    dof ry rz
    limits (-10.0 20.0)
           (-20.0 0.0)
  end
  begin
     id 25 
     name rhumerus
     direction -1 -4.48969e-011 -1.98511e-027  
     length 5.42351   
     axis 180 30 90   XYZ
    dof rx ry rz
    limits (-90.0 60.0)
           (-90.0 90.0)
           (-90.0 90.0)
  end
  begin
     id 26 
     name rradius
     direction -1 -4.48961e-011 -2.82624e-027   
     length 3.42066   
     axis 180 30 90   XYZ
    dof rx
    limits (-10.0 170.0)
  end
  begin
     id 27 
     name rwrist
     direction -1 -4.48966e-011 -3.80893e-027   
     length 1.71033   
     axis 1.1049e-015 -90 -90   XYZ
    dof ry
    limits (-180.0 0.0)
  end
  begin
     id 28
     name rhand
     direction -1 -4.48964e-011 -7.61786e-027   
     length 0.743608   
     axis 4.86085e-015 -90 -90   XYZ
    dof rx rz
    limits (-90.0 90.0)
           (-45.0 45.0)
  end
  begin
     id 29
     name rfingers
     direction -1 -4.48961e-011 -1.52357e-026   
     length 0.599516   
     axis 9.7217e-015 -90 -90   XYZ
    dof rx
    limits (0.0 90.0)
  end
  begin
     id 30
     name rthumb
     direction -0.707107 -6.34913e-011 0.707107   
     length 0.860789   
     axis -90 -45 -2.85299e-015   XYZ
    dof rx rz
    limits (-45.0 45.0)
           (-45.0 45.0)
  end
:hierarchy
  begin
    root lhipjoint rhipjoint lowerback
    lhipjoint lfemur
    lfemur ltibia
    ltibia lfoot
    lfoot ltoes
    rhipjoint rfemur
    rfemur rtibia
    rtibia rfoot
    rfoot rtoes
    lowerback upperback
    upperback thorax
    thorax lowerneck lclavicle rclavicle
    lowerneck upperneck
    upperneck head
    lclavicle lhumerus
    lhumerus lradius
    lradius lwrist
    lwrist lhand lthumb
    lhand lfingers
    rclavicle rhumerus
    rhumerus rradius
    rradius rwrist
    rwrist rhand rthumb
    rhand rfingers
  end

#!OML:ASF E:\mmandel\Project 1\Capture day 1\Session 2\Subject.ASF
:FULLY-SPECIFIED
:DEGREES
1
root 6.94221 14.7279 -1.01161 46.8339 86.0909 24.547
lowerback 20.84 1.79643 -3.97974
upperback 2.54233 1.65736 0.47859
thorax -9.01189 1.00357 2.31922
lowerneck -18.3269 1.23929 3.43625
upperneck 7.33075 1.63046 -6.14382
head 5.24974 0.464061 -2.34097
rclavicle 7.15625e-015 3.18055e-014
rhumerus -3.86315 1.85716 -84.5594
rradius 69.8994
rwrist -19.1839
rhand -7.79651 23.6815
rfingers 7.12502
rthumb 18.1046 -5.49592
lclavicle 7.15625e-015 3.18055e-014
lhumerus -6.86255 -6.89863 86.964
lradius 56.9859
lwrist 27.0701
lhand -14.4444 -26.9659
lfingers 7.12502
lthumb 11.7006 2.68737
rfemur -63.3037 -10.9854 15.8912
rtibia 67.3471
rfoot -20.5066 -9.06092
rtoes 7.44605
lfemur -58.4829 21.7024 -17.0339
ltibia 60.1421
lfoot -19.9251 -5.91335
ltoes -2.08502
2
root 6.94928 14.7277 -0.994866 47.6334 86.1485 25.3773
lowerback 21.0196 1.83169 -3.90898
upperback 2.38248 1.70272 0.47277
thorax -9.28786 1.02667 2.25454
lowerneck -17.8991 1.24482 3.35629
upperneck 7.24177 1.62794 -5.89325
head 5.1498 0.484761 -2.24744
rclavicle -1.0138e-014 -6.36111e-015
rhumerus -4.58515 2.19601 -84.4565
rradius 69.9621
rwrist -19.066
rhand -7.89822 23.4569
rfingers 7.12502
rthumb 18.0068 -5.72952
lclavicle -1.0138e-014 -6.36111e-015
lhumerus -7.42651 -7.16238 87.1814
lradius 56.9526
lwrist 26.9063
lhand -14.3169 -26.9409
lfingers 7.12502
lthumb 11.8235 2.70536
rfemur -63.2788 -11.0809 15.9765
rtibia 67.4059
rfoot -20.569 -9.00324
rtoes 7.19154
lfemur -58.3909 21.6842 -16.977
ltibia 60.0563
lfoot -19.8485 -5.79933
ltoes -3.15068
3
root 6.95601 14.7213 -0.976574 48.5745 86.123 26.3384
lowerback 21.1354 1.86615 -3.90551
upperback 2.31822 1.74022 0.47012
thorax -9.42477 1.04637 2.23592
lowerneck -17.7791 1.21755 3.11509
upperneck 7.21215 1.61493 -5.62208
head 5.11571 0.492339 -2.12332
rclavicle -2.26615e-014 -2.78299e-014
rhumerus -5.03073 2.52054 -84.3707
rradius 69.9108
rwrist -18.8839
rhand -7.83517 23.2572
rfingers 7.12502
rthumb 18.0674 -5.92361
lclavicle -2.26615e-014 -2.78299e-014
lhumerus -7.87895 -7.27403 87.4303
lradius 57.0827
lwrist 26.7053
lhand -14.2363 -26.7523
lfingers 7.12502
lthumb 11.9013 2.88939
rfemur -63.324 -11.0767 15.9719
rtibia 67.537
rfoot -20.654 -8.98173
rtoes 7.08159
lfemur -58.3657 21.7682 -17.0283
ltibia 60.046
lfoot -19.8651 -5.66482
ltoes -3.99751
4
root 6.95974 14.713 -0.958755 49.3762 86.0917 27.1399
lowerback 21.1906 1.86477 -3.92106
upperback 2.35838 1.7347 0.46391
thorax -9.40982 1.04429 2.23896
lowerneck -18.17 1.16665 2.98937
upperneck 7.31975 1.55743 -5.48235
head 5.20644 0.464388 -2.06507
rclavicle 8.34896e-015 8.74653e-015
rhumerus -5.06903 2.91789 -84.3198
rradius 69.615
rwrist -18.6208
rhand -7.50078 23.5967
rfingers 7.12502
rthumb 18.3891 -5.55407
lclavicle 8.34896e-015 8.74653e-015
lhumerus -8.17911 -7.22954 87.6377
lradius 57.354
lwrist 26.5241
lhand -14.2033 -26.6285
lfingers 7.12502
lthumb 11.9331 3.01138
rfemur -63.3906 -11.0103 15.9458
rtibia 67.6673
rfoot -20.6893 -8.76555
rtoes 7.19712
lfemur -58.3835 21.8513 -17.0658
ltibia 60.0501
lfoot -19.8537 -5.66969
ltoes -4.0686
5
root 6.96236 14.7105 -0.944317 49.1648 86.1489 26.9358
lowerback 20.8394 1.81241 -3.94495
upperback 2.60464 1.69564 0.536123
thorax -8.94616 1.02084 2.35208
lowerneck -18.0824 1.27461 3.08305
upperneck 6.93112 1.68464 -5.60119
head 5.07807 0.52795 -2.10384
rclavicle 1.90833e-014 6.48038e-014
rhumerus -4.75825 3.55475 -84.214
rradius 69.2241
rwrist -18.3728
rhand -7.47145 23.9892
rfingers 7.12502
rthumb 18.4173 -5.15897
lclavicle 1.90833e-014 6.48038e-014
lhumerus -8.1838 -7.10821 87.7492
lradius 57.498
lwrist 26.5302
lhand -14.0134 -26.9341
lfingers 7.12502
lthumb 12.1162 2.69511
rfemur -63.4042 -10.9513 16.034
rtibia 67.7783
rfoot -20.7413 -8.53723
rtoes 7.31176
lfemur -58.3526 21.8107 -16.9055
ltibia 60.0682
lfoot -19.7706 -5.75674
ltoes -3.5912
6
root 6.96994 14.7079 -0.932239 50.0267 86.2492 27.8223
lowerback 21.4126 1.75902 -3.82427
upperback 2.04757 1.6021 0.548068
thorax -9.86799 0.986772 2.3086
lowerneck -16.8213 1.29598 3.01989
upperneck 6.84283 1.72974 -5.51818
head 4.8508 0.56957 -2.06247
rclavicle -1.31198e-014 1.70955e-014
rhumerus -6.07222 4.26603 -84.2388
rradius 69.2318
rwrist -18.2397
rhand -7.78655 23.5809
rfingers 7.12502
rthumb 18.1142 -5.59566
lclavicle -1.31198e-014 1.70955e-014
lhumerus -9.58628 -7.1825 87.9288
lradius 57.752
lwrist 26.6186
lhand -13.7177 -27.1597
lfingers 7.12502
lthumb 12.4013 2.45247
rfemur -63.3524 -11.037 16.1029
rtibia 67.8907
rfoot -20.9249 -8.34273
rtoes 7.37031
lfemur -58.2824 21.6129 -16.7435
ltibia 60.0966
lfoot -19.6981 -5.71042
ltoes -3.54832
7
root 6.97886 14.7014 -0.922311 52.5019 86.252 30.3289
lowerback 21.6414 1.71796 -3.93314
upperback 1.76877 1.50551 0.608157
thorax -10.3033 0.954848 2.46078
lowerneck -15.9715 1.23313 2.66171
upperneck 6.66301 1.69468 -5.23986
head 4.65161 0.573275 -1.91984
rclavicle -3.77691e-015 1.86858e-014
rhumerus -7.04781 5.05116 -84.1397
rradius 69.4034
rwrist -18.2425
rhand -7.99694 23.0431
rfingers 7.12502
rthumb 17.9118 -6.15204
lclavicle -3.77691e-015 1.86858e-014
lhumerus -10.527 -7.09531 88.206
lradius 57.97
lwrist 26.6141
lhand -13.6917 -27.2273
lfingers 7.12502
lthumb 12.4264 2.3833
rfemur -63.325 -11.1914 16.0211
rtibia 68.0133
rfoot -21.0965 -8.17251
rtoes 7.27792
lfemur -58.2341 21.4089 -16.7694
ltibia 60.1364
lfoot -19.6754 -5.50165
ltoes -4.61769
8
root 6.98407 14.6984 -0.914691 53.2191 86.199 31.0433
lowerback 21.6762 1.75487 -3.93237
upperback 1.71011 1.54873 0.602933
thorax -10.3914 0.976324 2.44049
lowerneck -15.9086 1.09634 2.42081
upperneck 6.59648 1.53304 -4.99389
head 4.60987 0.504837 -1.81759
rclavicle 1.17283e-014 3.57812e-015
rhumerus -7.49965 5.61516 -83.9907
rradius 69.4692
rwrist -18.3411
rhand -8.28914 22.8219
rfingers 7.12502
rthumb 17.6306 -6.39872
lclavicle 1.17283e-014 3.57812e-015
lhumerus -10.9619 -7.17542 88.4474
lradius 58.1801
lwrist 26.6743
lhand -13.823 -27.4995
lfingers 7.12502
lthumb 12.2998 2.11873
rfemur -63.37 -11.215 15.9846
rtibia 68.1047
rfoot -21.2171 -7.90747
rtoes 7.18035
lfemur -58.2186 21.3662 -16.7906
ltibia 60.1733
lfoot -19.6635 -5.39579
ltoes -4.96498
9
root 6.98749 14.6962 -0.908142 52.9181 86.2115 30.7292
lowerback 21.7344 1.74988 -3.9524
upperback 1.57911 1.5367 0.681429
thorax -10.573 0.976822 2.54104
lowerneck -15.5409 1.11505 2.38312
upperneck 6.40965 1.56757 -5.03109
head 4.49468 0.525267 -1.81977
rclavicle 1.98785e-016 1.59028e-015
rhumerus -8.00941 6.3634 -83.8541
rradius 69.4932
rwrist -18.4074
rhand -8.45347 22.4072
rfingers 7.12502
rthumb 17.4725 -6.82753
lclavicle 1.98785e-016 1.59028e-015
lhumerus -11.5965 -7.05089 88.6929
lradius 58.5421
lwrist 26.8607
lhand -13.8405 -27.6121
lfingers 7.12502
lthumb 12.2829 2.00714
rfemur -63.4083 -11.1911 16.0305
rtibia 68.1798
rfoot -21.3354 -7.59264
rtoes 7.13817
lfemur -58.2297 21.3693 -16.7304
ltibia 60.2378
lfoot -19.6646 -5.42529
ltoes -4.71295
10
root 6.99321 14.6917 -0.901894 53.7141 86.2282 31.5589
lowerback 21.7647 1.72454 -3.98451
upperback 1.54231 1.49637 0.712759
thorax -10.6298 0.961495 2.60602
lowerneck -15.3623 1.21401 2.54883
upperneck 6.29783 1.68309 -5.2022
head 4.43922 0.579403 -1.89016
rclavicle 5.56597e-015 -7.95139e-015
rhumerus -8.49046 6.95946 -83.8067
rradius 69.6878
rwrist -18.3636
rhand -8.13127 21.7632
rfingers 7.12502
rthumb 17.7825 -7.44372
lclavicle 5.56597e-015 -7.95139e-015
lhumerus -12.1521 -7.0925 88.8526
lradius 59.0319
lwrist 27.1801
lhand -14.1104 -27.5967
lfingers 7.12502
lthumb 12.0227 2.03799
rfemur -63.3769 -11.2156 16.003
rtibia 68.2688
rfoot -21.4722 -7.41363
rtoes 7.04107
lfemur -58.2224 21.3497 -16.7315
ltibia 60.3312
lfoot -19.7585 -5.48905
ltoes -5.16013
11
root 6.99965 14.6849 -0.898325 53.7156 86.2414 31.5815
lowerback 21.7129 1.75279 -3.84964
upperback 1.64212 1.56598 0.648945
thorax -10.4886 0.983438 2.43786
lowerneck -15.9078 1.19175 2.75551
upperneck 6.55973 1.61825 -5.25092
head 4.60695 0.53964 -1.94477
rclavicle -1.55052e-014 -6.0033e-014
rhumerus -8.75913 7.19804 -83.7859
rradius 69.8763
rwrist -18.3146
rhand -7.75964 21.3934
rfingers 7.12502
rthumb 18.1401 -7.78074
lclavicle -1.55052e-014 -6.0033e-014
lhumerus -12.3924 -7.42534 88.9349
lradius 59.6362
lwrist 27.6295
lhand -14.6238 -27.5668
lfingers 7.12502
lthumb 11.5276 2.09617
rfemur -63.3755 -11.2145 16.0095
rtibia 68.3757
rfoot -21.5919 -7.18608
rtoes 6.99332
lfemur -58.2609 21.3672 -16.7054
ltibia 60.4643
lfoot -19.8224 -5.50334
ltoes -5.60284
12
root 7.00458 14.6737 -0.897345 53.0008 86.3066 30.8676
lowerback 21.465 1.74534 -3.7329
upperback 1.85051 1.60616 0.670089
thorax -10.1189 0.991479 2.38753
lowerneck -16.312 1.14901 2.79934
upperneck 6.51569 1.54337 -5.2258
head 4.65452 0.501746 -1.95028
rclavicle 2.78299e-015 1.59028e-014
rhumerus -8.76092 7.62671 -83.6629
rradius 69.9368
rwrist -18.4461
rhand -7.63376 21.5034
rfingers 7.12502
rthumb 18.2612 -7.65938
lclavicle 2.78299e-015 1.59028e-014
lhumerus -12.4269 -7.47965 89.0341
lradius 60.2677
lwrist 28.0489
lhand -14.9352 -27.5939
lfingers 7.12502
lthumb 11.2273 2.08567
rfemur -63.4213 -11.2102 16.0917
rtibia 68.5026
rfoot -21.7054 -6.96547
rtoes 6.91899
lfemur -58.3613 21.3885 -16.614
ltibia 60.632
lfoot -19.8412 -5.41464
ltoes -5.88294
13
root 7.01073 14.663 -0.894894 52.7789 86.3703 30.6373
lowerback 20.9911 1.70304 -3.65563
upperback 2.27587 1.60907 0.681579
thorax -9.38389 0.978658 2.36575
lowerneck -17.0741 1.13511 2.81612
upperneck 6.31167 1.50607 -5.20605
head 4.71005 0.480222 -1.94955
rclavicle -1.19271e-014 1.70955e-014
rhumerus -8.36785 8.06713 -83.5414
rradius 70.058
rwrist -18.7299
rhand -7.44636 21.1922
rfingers 7.12502
rthumb 18.4415 -7.95369
lclavicle -1.19271e-014 1.70955e-014
lhumerus -12.0881 -7.41313 89.0455
lradius 60.9379
lwrist 28.3835
lhand -15.1353 -27.7879
lfingers 7.12502
lthumb 11.0343 1.90208
rfemur -63.4715 -11.191 16.1452
rtibia 68.6295
rfoot -21.8474 -6.86512
rtoes 6.84922
lfemur -58.4575 21.4123 -16.5527
ltibia 60.7819
lfoot -19.8972 -5.28808
ltoes -6.30207
